<svg viewBox="0 0 24 24" xmlns="http://www.w3.org/2000/svg" >
    <path d="M21.5 9.52v4.748h-.001c-.1 2.475-4.093 5.773-9 7.408-4.904 1.635-8.9 1-8.997-1.41l-.002.002v-5" fill="white" stroke="#000"/>
    <path d="M21.502 9.521c-1.622 2.209-5.045 4.502-9.003 5.821-3.955 1.32-7.377 1.31-9 .181" fill="none" stroke="#000" stroke-width=".5"/>
    <path d="M3.5 15.523c-.613-.426-.968-1.012-.998-1.746h-.003v-3.333h.003a1.711 1.711 0 0 1-.003-.102c0-2.76 4.481-6.493 10-8.333C17.714.27 22.002.84 22.46 3.237l.04-.015v3.89c-.03.752-.39 1.575-1 2.41" fill="white" stroke="#000" stroke-linecap="round"/>
    <ellipse cx="247.153" cy="18.5" rx="9" ry="4.5" fill="none" stroke="#000" stroke-width=".53" transform="matrix(1.11111 -.37037 0 1.11111 -262.115 77.992)"/>
</svg>
