<svg viewBox="0 0 24 24" xmlns="http://www.w3.org/2000/svg" fill-rule="evenodd" clip-rule="evenodd" stroke-linecap="round" stroke-linejoin="round" stroke-miterlimit="1.5">
    <path d="M301.343.067l-4.4 2.54 3.412 6.968-6.327-1.93v5.1l6.327 1.934-3.412 3.096 4.4 2.549 3.432-3.093 2.396 3.093 4.4-2.541-2.376-3.104 5.291-1.934v-5.1l-5.291 1.93 2.376-6.968-4.4-2.54-2.396 6.936-3.432-6.936z" fill="white" stroke="#000" stroke-width="1.39" transform="matrix(1.05389 .1412 -.28239 .52694 -305.773 -31.049)"/>
    <path d="M7.429 1.814L5.756 4.935v2.182l4.547 2.29 6.354-.888 1.624-3.17V3.27L13.67.977l-6.242.837z" fill="white" stroke="#000" stroke-width="1.0037752"/>
    <path d="M308.12 10.542l-6.242-3.604 6.242 3.604zM308.12 10.542v7.207M308.12 17.749l-6.242 3.604M301.878 21.353l-6.241-3.604M295.637 17.749v-7.207M301.878 6.938l-6.241 3.604 6.241-3.604z" stroke="#000"  transform="matrix(.74628 .09998 -.19996 .37314 -210.456 -17.087)"/>
    <path d="M5.756 4.935l4.566 2.258 6.248-.809 1.672-3.121" fill="none" stroke="#000" stroke-width=".5018876"/>
</svg>
