<svg viewBox="0 0 24 24" xmlns="http://www.w3.org/2000/svg" fill-rule="evenodd" clip-rule="evenodd" stroke-linecap="round" stroke-linejoin="round" stroke-miterlimit="1.5">
    <path d="M.6 12.45a2.034 2.034 0 0 1-.1-.06c1.374-2.21 3.369-4.158 5.588-5.25 2.22-1.092 4.215-1.108 5.589-.25-.032.051 11.463 5.775 11.823 6l-.052.084.052.026-.101.05c-1.37 2.144-3.322 4.025-5.487 5.09-2.123 1.045-4.041 1.105-5.406.357l-.006.003-12-6 .1-.05z" fill="white" stroke="#000"/>
    <path d="M489.877 10a7.48 7.48 0 0 1 5.588-2.5 7.48 7.48 0 0 1 5.588 2.5 7.48 7.48 0 0 1-5.588 2.5 7.48 7.48 0 0 1-5.588-2.5z" fill="none" stroke="#000" stroke-width=".5" transform="matrix(1 -.4921 0 1 -477.553 249.459)"/>
</svg>
