<svg viewBox="0 0 25 25" xmlns="http://www.w3.org/2000/svg" fill-rule="evenodd" clip-rule="evenodd" stroke-linecap="round" stroke-linejoin="round" stroke-miterlimit="1.5">
    <g fill="none">
        <path d="M1.386 12.943v3.02l12.597 6.308 10.405-5.211v-3.02L11.792 7.732l-10.405 5.21z" stroke="#000" fill="white"/>
        <path stroke="#000" stroke-width=".5" d="M860.69 72.654h19v23h-19z" transform="scale(.77445 .3879) rotate(-45 383.817 1089.796)"/>
        <path d="M8.899 14.552l3.222 1.614 1.249-.625 1.662.833 1.975-.99-3.222-1.613-.832.417-1.663-.833-2.39 1.197z" stroke="#000" stroke-width=".5"/>
        <path d="M13.983 19.251v3.02" stroke="#000" stroke-width=".5" />
        <path d="M863.69 78.654h3v-4h10v4h2v11h-2v4h-10v-4h-3v-11z" stroke="#000" stroke-width=".5" transform="scale(.58803 .29453) rotate(-45 400.18 1089.964)"/>
        <path d="M12.953 11.169v3.019m-1.663-3.853v3.02m2.496-2.604v3.02m3.74-.312v1.666m-8.73-1.874v1.25" stroke="#000" stroke-width=".5"/>
    </g>
</svg>
