<svg xmlns="http://www.w3.org/2000/svg" viewBox="0 0 24 24">
    <path fill="#FFF" d="M2.2 19.3v-6.1c0-3.6 2.5-6.4 4.6-6.4.1 0 .2 0 .2-.1l2.1-1.1c.1-.1.2-.2.2-.3.3-.4.5-.8.8-1.3.9-1.5 2.2-2.5 3.3-2.5.3 0 .6.1.8.2.3.2.5.5.6.9 0 .3.2.4.4.4h.1c1.3 0 2 .5 2 .7v.1c-.1.1-.1.3-.1.4 0 .1.1.2.3.3l1.7.9h.1l.3.1.3.2c1.2.7 1.9 2.1 1.9 3.9v6.1L8.6 22.4l-6.4-3.1z"/>
    <path d="M13.4 2c.2 0 .3 0 .5.1s.3.4.4.6c.1.4.5.7 1 .7h.2c.7 0 1.1.2 1.4.3-.1.2-.1.4 0 .5-.1.4.1.6.3.8l1.8.9h.1l.3.1.3.1c1.1.7 1.6 1.8 1.6 3.5v5.8L8.6 21.9 2.7 19v-5.8c0-3.4 2.2-5.9 4.1-5.9.2 0 .3 0 .4-.1l2.1-1.1c.4-.1.5-.3.6-.6.1-.4.4-.8.6-1.3 1-1.5 2.2-2.2 2.9-2.2m0-1c-1.2 0-2.7 1-3.7 2.7-.3.5-.5 1-.7 1.5L6.9 6.3c-2.6 0-5.1 3-5.1 6.9v6.4L8.6 23l13.7-6.9V9.7c0-2.2-.9-3.6-2.1-4.4l.2.1-.6-.3-.3-.1-1.7-.9c.1-.1.1-.2.1-.4 0-.7-1.1-1.2-2.4-1.2h-.2c-.1-.5-.4-.9-.7-1.2-.4-.2-.8-.3-1.2-.3z"/>
    <path fill="none" stroke="#000" stroke-width=".4" stroke-linejoin="round" stroke-miterlimit="10" d="M15.4 3.8c0-1.1-.3-2-.9-2.4-1.3-1-3.4.1-4.8 2.4C9 4.9 8.6 7.1 8.6 7.1l6.8-3.3"/>
    <path fill="none" stroke="#000" stroke-width=".4" stroke-miterlimit="10" d="M14.7 2.5h.6c1.3 0 2.4.5 2.4 1.2 0 .3-.3.6-.7.9M8.6 16.6c0-3.8 1.7-6.4 1.7-8.6l6.9-3.4M8.6 22.6v-6"/>
</svg>
